<svg xmlns="http://www.w3.org/2000/svg" width="128" height="128"><path fill="#8EEF97" d="M8 24c0 8.837 7.163 16 16 16s16-7.163 16-16S32.837 8 24 8 8 15.163 8 24m104-8a8 8 0 1 1 0 16H46.635A24 24 0 0 0 48 24c0-2.81-.483-5.508-1.37-8.015zm8 48c0 8.837-7.163 16-16 16s-16-7.163-16-16 7.163-16 16-16 16 7.163 16 16M16 56a8 8 0 1 0 0 16h65.365A24 24 0 0 1 80 64c0-2.81.483-5.508 1.37-8.015zm88 32c8.837 0 16 7.163 16 16s-7.163 16-16 16-16-7.163-16-16 7.163-16 16-16m-80 0c8.837 0 16 7.163 16 16s-7.163 16-16 16-16-7.163-16-16 7.163-16 16-16m22.624 7.97 34.75.007A24 24 0 0 0 80 104c0 2.805.481 5.497 1.365 8h-34.73A24 24 0 0 0 48 104c0-2.817-.485-5.52-1.376-8.03"/></svg>